<?xml version="1.0" encoding="UTF-8" standalone="no"?><!-- Generator: Gravit.io --><svg xmlns="http://www.w3.org/2000/svg" xmlns:xlink="http://www.w3.org/1999/xlink" style="isolation:isolate" viewBox="0 0 70 70" width="70pt" height="70pt"><defs><clipPath id="_clipPath_QdMSEvwbnHWgc8wqbKDppcFENUIizuOY"><rect width="70" height="70"/></clipPath></defs><g clip-path="url(#_clipPath_QdMSEvwbnHWgc8wqbKDppcFENUIizuOY)"><g style="opacity:0.7;"><path d="" fill-rule="evenodd" fill="rgb(235,235,235)"/></g><g><g style="mix-blend-mode:normal;" opacity="0.43"><path d="M 19.703 19.08 L 52.747 19.08 C 53.99 19.08 55 20.09 55 21.333 L 55 58.747 C 55 59.99 53.99 61 52.747 61 L 19.703 61 C 18.46 61 17.45 59.99 17.45 58.747 L 17.45 21.333 C 17.45 20.09 18.46 19.08 19.703 19.08 Z" style="stroke:none;fill:#AAAAAA;stroke-miterlimit:10;"/></g><path d=" M 34.375 21.657 L 34.375 21.657 L 34.375 21.657 C 29.562 21.657 27.581 18.132 29.953 13.791 L 30.015 13.678 L 30.077 13.565 C 32.449 9.224 36.301 9.224 38.673 13.565 L 38.735 13.678 L 38.797 13.791 C 41.169 18.132 39.187 21.657 34.375 21.657 Z " fill="rgb(235,235,235)"/><circle vector-effect="non-scaling-stroke" cx="34.37491005853336" cy="13.678031366054796" r="1.3412451230212525" fill="rgb(255,255,255)"/><path d="M 17.067 16.29 L 50.903 16.29 C 52.176 16.29 53.21 17.324 53.21 18.597 L 53.21 56.903 C 53.21 58.176 52.176 59.21 50.903 59.21 L 17.067 59.21 C 15.794 59.21 14.76 58.176 14.76 56.903 L 14.76 18.597 C 14.76 17.324 15.794 16.29 17.067 16.29 Z" style="stroke:none;fill:#F2F2F2;stroke-miterlimit:10;"/></g><path d=" M 21.607 44.9 Q 25.276 46.838 28.946 47.581 C 34.428 48.69 39.91 47.796 45.393 44.9" fill="none" vector-effect="non-scaling-stroke" stroke-width="3" stroke="rgb(176,176,176)" stroke-linejoin="round" stroke-linecap="round" stroke-miterlimit="3"/><path d=" M 39.786 28.971 L 39 34.471 L 49.786 29.971" fill="none" vector-effect="non-scaling-stroke" stroke-width="2" stroke="rgb(100,185,100)" stroke-linejoin="round" stroke-linecap="round" stroke-miterlimit="3"/><circle vector-effect="non-scaling-stroke" cx="25.933645922594877" cy="31.720768192809203" r="3.9336459225948985" fill="rgb(162,162,162)"/></g></svg>